<svg xmlns="http://www.w3.org/2000/svg" width="40" height="40" viewBox="0 0 26 30" fill="none">
<path d="M18.2865 16.8668L14.4313 11.445C13.9977 11.494 13.5641 11.5176 13.0815 11.5176H8.55229V16.8668H6.76889V0H13.0815C17.3713 0 19.9728 2.1689 19.9728 5.7828C19.9728 8.4334 18.5759 10.2884 16.1176 11.084L20.2387 16.8668H18.2865ZM18.1904 5.7828C18.1904 3.0841 16.407 1.5421 13.0334 1.5421H8.55229V10H13.0334C16.407 10 18.1904 8.4334 18.1904 5.7828Z" fill="#F5F5F5"/>
<path d="M25.0109 12.2729L19.3242 29.1397H17.4447L12.5055 14.7547L7.5418 29.1397H5.6868L0 12.2729H1.8315L6.6981 26.7785L11.7344 12.2729H13.3971L18.3598 26.8511L23.3 12.2729H25.0109Z" fill="#F5F5F5"/>
<clipPath id="clip0_1_2">
<rect width="40" height="40" fill="white"/>
</clipPath>
</svg>